<mxfile host="app.diagrams.net" modified="2024-02-05T07:19:46.351Z" agent="Mozilla/5.0 (Macintosh; Intel Mac OS X 10_15_7) AppleWebKit/537.36 (KHTML, like Gecko) Chrome/120.0.0.0 Safari/537.36" version="23.1.1" etag="FB5grSoaCZ1lEvukJwXU" type="github">
  <diagram name="페이지-1" id="R0paAVLQADUiXafBNu8l">
    <mxGraphModel>
      <root>
        <mxCell id="0" />
        <mxCell id="1" parent="0" />
      </root>
    </mxGraphModel>
  </diagram>
</mxfile>
